<?xml version="1.0" encoding="UTF-8" standalone="no"?>
<svg width="185px" height="185px" viewBox="0 0 185 185" version="1.1" xmlns="http://www.w3.org/2000/svg" xmlns:xlink="http://www.w3.org/1999/xlink" xmlns:sketch="http://www.bohemiancoding.com/sketch/ns">
    <!-- Generator: Sketch 3.3.2 (12043) - http://www.bohemiancoding.com/sketch -->
    <title>logo-light</title>
    <desc>Created with Sketch.</desc>
    <defs>
        <circle id="path-1" cx="92.5" cy="92.5" r="92.5"></circle>
        <path d="M12.3454162,138.699075 C28.331841,166.37547 58.2409244,185 92.5,185 C143.586339,185 185,143.586339 185,92.5 C185,91.7997987 184.99222,91.1014145 184.976742,90.4049291 L184.976742,90.4049291 C184.747938,90.4843092 184.524995,90.5820538 184.310411,90.6984499 C182.386739,91.6804933 180.522026,92.7764483 178.607309,93.777128 C175.901261,95.2511738 173.171003,96.7030015 170.285765,97.7997726 C168.691663,98.4148747 167.011382,98.7630078 165.382742,99.271962 C162.737506,99.9152561 160.100677,100.591926 157.481048,101.333051 C153.492997,102.417284 149.50496,103.501525 145.516909,104.585754 C142.964325,105.653396 140.415359,106.733214 137.937102,107.966252 C134.021214,109.86211 130.117845,111.783459 126.221092,113.718305 C125.089938,114.213581 123.893762,114.530722 122.722435,114.913838 C121.58639,115.047466 120.372572,115.358946 119.283273,114.845665 C118.320551,114.058485 117.72045,112.769129 117.960505,111.520871 C118.029084,110.447598 119.027306,109.819112 119.81478,109.249334 C121.130598,108.276125 122.60387,107.552192 124.02084,106.742626 C128.941789,104.032136 133.839687,101.279831 138.751518,98.5527967 C139.422078,98.0261838 140.170407,97.4661789 140.445839,96.621335 C140.76752,95.8526774 140.332109,94.985485 139.633944,94.6048294 C138.713141,93.9405813 137.519585,94.1949191 136.471094,94.2767293 C134.284995,94.4942839 132.109669,94.8062847 129.941088,95.1556641 C127.458665,95.4867115 124.977172,95.8256748 122.483724,96.06448 C119.039585,96.4302832 115.585895,96.6995415 112.136641,97.0122966 C109.283718,97.2510629 106.431189,97.5056203 103.573325,97.6764857 C102.483142,97.6907008 101.346126,97.9045032 100.299201,97.4988509 C99.4978002,97.2750918 98.8845213,96.6458474 98.5168473,95.9198195 C98.2087224,95.2921283 98.1868865,94.5638218 98.2834203,93.8842746 C98.4204292,93.0984347 98.8421347,92.3659555 99.4964294,91.8997613 C100.293938,91.3838114 101.234927,91.2388423 102.154674,91.0959566 C109.749335,89.7497938 117.375142,88.589754 124.989524,87.3625359 C126.635287,87.1398894 128.277634,86.884683 129.925431,86.68163 C130.689128,86.6312175 131.580008,86.6653797 132.160224,86.0817712 C132.895431,85.4000703 131.862725,84.2853531 131.051812,84.4943086 C129.887199,84.5889087 128.743401,84.8318767 127.581339,84.9444564 C122.758397,85.5886793 117.933695,86.2193495 113.102374,86.7977224 C107.415072,87.502282 101.72679,88.1987974 96.0384587,88.8949369 C95.0331724,88.8800892 93.9462349,89.0065578 93.0407956,88.4734311 C92.2684288,88.0007897 91.6049319,87.2654974 91.2997603,86.4073493 C91.0265632,85.565072 91.1407212,84.6742256 91.2872836,83.8205479 C91.3346426,83.6572866 91.3820026,83.4940213 91.4293543,83.330758 L91.4293492,83.3310234 L91.4293484,83.3310224 C91.9102511,82.0883561 93.112476,81.2629455 94.3704598,80.9464084 C96.2142115,80.4009167 98.1252994,80.1495039 100.002916,79.7517634 C104.226923,78.9401697 108.460425,78.1726553 112.709835,77.5063663 C116.11921,76.9993515 119.528251,76.4848211 122.945979,76.0386323 C124.696094,75.8260573 126.459618,75.7622645 128.212417,75.5736195 C129.079383,75.4937324 130.065778,75.540964 130.702037,74.8348803 C131.220049,74.376064 131.419985,73.5672634 131.047737,72.9568098 C130.662533,72.1579677 129.802405,71.7216539 128.951027,71.6256222 C127.015164,71.3030167 125.04444,71.2949499 123.088627,71.1861137 C116.175017,70.8485931 109.259478,70.5537333 102.343889,70.2602366 C100.913823,70.1080584 99.4991205,69.8483939 98.0842146,69.5961737 C97.3012769,69.3451823 96.5288334,68.927593 96.040689,68.2444391 C95.5172236,67.3989756 95.321745,66.334226 95.6156359,65.3728649 C95.8453907,64.6090683 96.357309,63.9041537 97.0360066,63.4816291 C97.7015691,62.9928783 98.5468093,62.9096345 99.3252477,62.7115905 C103.533077,62.0866632 107.767426,61.6612318 112.008383,61.3388403 C113.948389,61.1482378 115.896433,61.0795502 117.845049,61.0590822 C123.340462,61.0093671 128.837037,61.0201762 134.331759,60.9318609 C135.937553,60.8269275 137.547325,60.7590649 139.140927,60.5229172 C140.648477,60.3518721 142.159089,60.1445803 143.621265,59.7282158 C144.559689,59.3896417 145.539214,59.1753212 146.473175,58.8188592 C147.392216,58.4220951 148.444006,58.2737083 149.271415,57.7031729 C150.05055,57.171809 150.258959,55.9649353 149.45044,55.3545215 C148.618378,54.5949102 147.452948,54.4664575 146.429096,54.105378 C144.109777,53.3933612 141.761157,52.7761741 139.471185,51.9701639 C138.531884,51.6801955 137.616866,51.331922 136.77757,50.8132918 C135.717094,50.2384279 134.687093,49.6101031 133.709665,48.9027342 C132.693588,48.2418008 131.698456,47.5388254 130.799726,46.723486 C129.790362,45.7843207 128.992061,44.645917 128.225542,43.5076207 C127.759216,42.7846787 127.31033,41.9491867 127.391201,41.0632226 C127.453537,40.3059402 127.814829,39.5889002 128.335654,39.0408824 C128.883613,38.41145 129.716827,38.0578447 130.549285,38.0989558 C131.572544,38.1051191 132.525882,38.5392091 133.505003,38.7869001 C139.296387,40.4839116 145.036919,42.3526449 150.846855,43.9859641 C153.264538,44.6696845 155.747699,45.0718023 158.196979,45.619147 C159.457697,45.9200503 160.73499,46.2500547 161.842472,46.9504712 C163.638135,48.01298 165.34796,49.2162634 167.023369,50.4576528 C169.832402,52.5989842 172.681659,54.6882393 175.426756,56.9121398 C176.622117,57.876251 177.835428,58.8175972 179.041794,59.7677728 C165.822941,24.8363737 132.061893,0 92.5,0 C41.4136606,0 0,41.4136606 0,92.5 C0,97.4015819 0.381247131,102.214119 1.11570547,106.909575 C1.70320821,105.844622 2.29228614,104.780541 2.86541847,103.707714 C4.52327822,100.588137 6.32962095,97.5517995 8.07859275,94.4832437 C9.13572127,92.6859788 10.2394174,90.9103423 11.477128,89.2307455 C12.2228645,88.1533259 13.2696332,87.3505102 14.3125145,86.5809574 C16.3531397,85.1201744 18.4816936,83.7798301 20.4399508,82.2058633 C25.1496414,78.4324184 29.7034682,74.4693997 34.3711965,70.6445769 C35.1756685,70.0340283 35.8835788,69.2619795 36.8230466,68.8565037 C37.5732343,68.4934084 38.4783389,68.4933412 39.2286449,68.8586172 C39.9221662,69.1595551 40.5348817,69.6784045 40.8881417,70.3511021 C41.3087397,71.1350052 41.221994,72.0794344 41.075221,72.9270789 C40.8144154,74.2743331 40.5243969,75.6341042 39.9622567,76.8929483 C39.4535709,77.9945884 38.8122482,79.0304667 38.1352202,80.0358302 C37.5119095,81.0688357 36.8093235,82.0496246 36.0577985,82.9931116 C35.4878911,83.7984189 34.781723,84.4765043 34.0304228,85.1104095 C32.2374998,86.7470415 30.3168179,88.2327824 28.4601573,89.7943629 C27.6588142,90.5267591 26.636263,91.1003465 26.1671697,92.1246423 C25.6614527,93.0024083 26.3248297,94.031867 27.2496097,94.21655 C28.2341285,94.4184279 29.2602429,94.1440631 30.2612112,94.1501882 C31.2601663,94.1133871 32.245525,93.9279468 33.2415992,93.8729367 C34.7501631,93.6848925 36.2216233,93.285479 37.6761031,92.8538978 C39.2352272,92.4486198 40.7434838,91.882123 42.2625623,91.3513032 C47.3547777,89.2857243 52.4099686,87.128181 57.4877388,85.0268017 C59.2893714,84.2842887 61.1093186,83.5863834 62.9695013,83.0038372 C66.9991242,81.6435825 71.062924,80.3807545 75.1802597,79.3119174 C75.9741651,79.1900628 76.7847051,78.936438 77.5882957,79.1262716 C78.3781009,79.2500141 79.1247253,79.6988504 79.6346337,80.3121313 C80.2807687,81.0822045 80.5168507,82.1386476 80.3653535,83.1213944 C80.1829512,83.9409402 79.635101,84.6271225 79.012499,85.1640572 C77.8086713,85.9490425 76.6079398,86.7408003 75.3510692,87.4396237 C69.1001729,90.4118017 62.8498555,93.3852149 56.6179819,96.3971421 C54.8602452,97.2614875 53.0494106,98.0389043 51.3935601,99.0922224 C50.6474159,99.5132626 50.0261712,100.25094 49.9837234,101.136752 C49.8795943,101.844098 50.3796399,102.510453 51.0357185,102.730384 C51.8972514,103.131714 52.7867412,102.70284 53.615968,102.437637 C55.3030668,101.926434 56.9512575,101.296117 58.6452359,100.80799 C61.9654738,99.8833339 65.3044178,99.0249787 68.6407319,98.1595753 C72.812502,97.112564 77.0091791,96.164943 81.2143391,95.2616052 C83.0980258,94.8940993 84.9553494,94.3788258 86.8655933,94.1605514 C88.1472014,93.9604002 89.5763097,94.2504359 90.504493,95.2063731 L90.5044927,95.2063744 L90.5043843,95.206132 C90.6117593,95.3379094 90.7191428,95.4696855 90.8265238,95.6014582 C91.2949743,96.329976 91.7481199,97.1053673 91.8257415,97.9873977 C91.8801324,98.8965297 91.5566953,99.83258 91.0304254,100.569406 C90.4052992,101.4139 89.3553962,101.722173 88.4358648,102.12862 C82.9279525,103.710363 77.4199389,105.29174 71.9096847,106.865331 C67.2366352,108.220627 62.5492451,109.525199 57.8581805,110.816609 C56.7445537,111.167018 55.5967953,111.390273 54.4878457,111.758229 C53.6597853,111.882728 53.1447504,113.312282 54.0878343,113.652508 C54.8499287,113.963001 55.6566066,113.583476 56.3792614,113.331491 C57.9753392,112.874576 59.5867777,112.467796 61.1886392,112.02971 C68.6769177,110.18427 76.1494644,108.272532 83.6660635,106.544282 C84.5684873,106.316445 85.4912782,106.082225 86.4269475,106.245542 C87.2113531,106.419015 87.8857096,106.928471 88.3188612,107.598279 C88.6732265,108.186063 88.9376876,108.864976 88.8993172,109.563134 C88.8445554,110.375074 88.5259078,111.19389 87.8756707,111.712973 C87.0705058,112.495411 85.9403846,112.742862 84.9313528,113.155729 C82.2340246,114.115063 79.5089075,114.995277 76.7895973,115.89018 C73.4924749,116.949975 70.2082649,118.05154 66.8951245,119.060507 C64.5066842,119.814922 62.0901145,120.472474 59.6757816,121.137675 C57.5431667,121.66338 55.4189478,122.226127 53.3217146,122.880016 C52.3246489,123.214374 51.1266469,123.446605 50.5386101,124.417794 C50.0447003,125.040959 49.9827435,126.009302 50.579167,126.59114 C51.1627862,127.261175 52.0704002,127.484258 52.8933841,127.70699 C58.4800543,128.298009 64.0637727,128.917731 69.6523721,129.489959 C71.2729555,129.681506 72.9119046,129.772233 74.5033183,130.15393 C75.4507833,130.370714 76.6151719,130.559194 77.0976412,131.520312 C77.8063168,132.575499 77.7577137,133.996776 77.1791236,135.0975 C76.3770066,135.995562 75.1380277,136.183113 74.0401255,136.503982 C72.8122684,136.608992 71.5873173,136.784438 70.3526155,136.770511 C66.0098106,136.51207 61.6661891,136.268636 57.3210042,136.053558 C54.5580847,135.886879 51.7899453,135.888862 49.0232325,135.903466 C44.9287403,136.46366 40.8342556,137.023838 36.7397609,137.584029 C34.0389104,137.925376 31.3474122,138.332773 28.6612162,138.774175 C26.9632508,138.942034 25.2805869,139.2781 23.5729403,139.334758 C20.4886492,139.452523 17.408287,139.182916 14.3415274,138.8834 C13.6754982,138.829897 13.0103108,138.766137 12.3454162,138.699075 Z" id="path-3"></path>
    </defs>
    <g id="Page-1" stroke="none" stroke-width="1" fill="none" fill-rule="evenodd" sketch:type="MSPage">
        <g id="logo-light" sketch:type="MSLayerGroup">
            <mask id="mask-2" sketch:name="Mask" fill="white">
                <use xlink:href="#path-1"></use>
            </mask>
            <use id="Mask" sketch:type="MSShapeGroup" xlink:href="#path-1"></use>
            <mask id="mask-4" sketch:name="Mask Copy" fill="white">
                <use xlink:href="#path-3"></use>
            </mask>
            <use id="Mask-Copy" fill="#FFFFFF" sketch:type="MSShapeGroup" xlink:href="#path-3"></use>
        </g>
    </g>
</svg>