<?xml version="1.0" encoding="UTF-8" standalone="no"?>
<svg width="404px" height="70px" viewBox="0 0 404 70" version="1.1" xmlns="http://www.w3.org/2000/svg" xmlns:xlink="http://www.w3.org/1999/xlink" xmlns:sketch="http://www.bohemiancoding.com/sketch/ns">
    <!-- Generator: Sketch 3.3.2 (12043) - http://www.bohemiancoding.com/sketch -->
    <title>logo-dark-full</title>
    <desc>Created with Sketch.</desc>
    <defs>
        <circle id="path-1" cx="35" cy="35" r="35"></circle>
        <path d="M4.67123855,52.4807311 C10.720156,62.9528804 22.0371065,70 35,70 C54.3299662,70 70,54.3299662 70,35 C70,34.735059 69.9970562,34.4708055 69.9911996,34.2072705 L69.9911996,34.2072705 C69.9046252,34.2373062 69.8202683,34.2742906 69.7390744,34.3183324 C69.0111984,34.6899164 68.3056314,35.1046021 67.5811441,35.4832376 C66.5572338,36.0409847 65.5241633,36.5903249 64.4324514,37.0053194 C63.8292781,37.2380607 63.193496,37.3697867 62.5772536,37.562364 C61.5763537,37.8057726 60.5786347,38.0618097 59.5874236,38.3422355 C58.0784312,38.7524858 56.5694442,39.162739 55.0604522,39.5729879 C54.0946095,39.9769607 53.1301358,40.3855403 52.1924171,40.8520954 C50.7107296,41.5694469 49.2337792,42.2964441 47.759332,43.0285477 C47.3313277,43.2159497 46.8787209,43.3359488 46.4355159,43.4809117 C46.0056611,43.5314738 45.5463785,43.6493307 45.1342115,43.4551167 C44.7699384,43.1572645 44.5428729,42.6694003 44.6337045,42.1970865 C44.6596535,41.790983 45.037359,41.5531775 45.3353223,41.3375858 C45.8331992,40.9693445 46.3906534,40.6954239 46.9268043,40.3891017 C48.7887851,39.3635107 50.6420436,38.3220983 52.5005742,37.2902474 C52.7542997,37.0909885 53.0374512,36.8790947 53.1416687,36.5594241 C53.2633861,36.2685807 53.0986358,35.9404538 52.8344653,35.7964219 C52.4860534,35.5450848 52.0344377,35.6413208 51.6377113,35.6722759 C50.8105388,35.7545939 49.9874423,35.8726483 49.166898,36.0048459 C48.2276029,36.1301071 47.2886596,36.2583634 46.345193,36.3487221 C45.0420052,36.4871342 43.7352036,36.5890157 42.4300802,36.7073555 C41.3505959,36.7976995 40.2712608,36.8940185 39.1899069,36.9586703 C38.777405,36.9640489 38.3471828,37.0449472 37.9510492,36.8914571 C37.6478163,36.8067915 37.4157648,36.568699 37.2766449,36.2939858 C37.1600571,36.056481 37.1517949,35.7809055 37.1883212,35.5237796 C37.2401624,35.2264347 37.3997267,34.9492805 37.6472976,34.7728826 C37.9490575,34.5776584 38.3051075,34.5228052 38.6531198,34.4687403 C41.5267754,33.9593814 44.4122158,33.5204475 47.2933335,33.0560947 C47.9160547,32.9718501 48.5374832,32.8752855 49.1609738,32.7984546 C49.4499403,32.7793796 49.78703,32.7923058 50.0065714,32.571481 C50.2847576,32.3135401 49.894004,31.8917552 49.5871721,31.9708195 C49.1465075,32.0066141 48.7137195,32.0985479 48.27402,32.1411457 C46.4491234,32.3849057 44.6235604,32.6235377 42.7954929,32.8423814 C40.6435409,33.1089716 38.491218,33.372518 36.3388763,33.6359221 C35.9584977,33.630304 35.547224,33.678157 35.2046253,33.4764334 C34.9123785,33.2975961 34.6613256,33.0193774 34.5458552,32.6946727 C34.4424834,32.3759732 34.4856783,32.0388962 34.5411343,31.715883 C34.559054,31.6541084 34.576974,31.5923324 34.5948908,31.5305571 L34.5948889,31.5306575 L34.5948886,31.5306571 C34.7768518,31.060459 35.2317477,30.7481415 35.7077415,30.6283707 C36.4053773,30.4219685 37.1284917,30.3268393 37.8389411,30.1763429 C39.4372141,29.8692534 41.0390797,29.5788426 42.6469647,29.3267332 C43.9369983,29.1348898 45.2269058,28.9402026 46.5201003,28.7713744 C47.1823058,28.6909406 47.8495854,28.6668028 48.5128063,28.5954236 C48.8408476,28.565196 49.2140782,28.5830675 49.4548249,28.3159007 C49.6508292,28.1422945 49.7264809,27.8362618 49.5856301,27.6052794 C49.4398773,27.3030148 49.1144236,27.1379231 48.7922805,27.1015868 C48.0597919,26.9795198 47.3141123,26.9764675 46.5740751,26.9352863 C43.9581146,26.8075758 41.3414243,26.6960072 38.7247149,26.5849544 C38.1836086,26.5273734 37.6483159,26.429122 37.1129461,26.3336873 C36.8166994,26.2387176 36.5244235,26.0807109 36.3397202,25.8222202 C36.1416522,25.5023151 36.0676873,25.0994369 36.1788893,24.7356786 C36.2658235,24.4466745 36.4595223,24.1799501 36.7163268,24.0200759 C36.9681613,23.8351431 37.2879819,23.8036455 37.5825262,23.7287099 C39.1746779,23.4922509 40.7768639,23.3312769 42.3815503,23.2092909 C43.1156068,23.1371711 43.8527046,23.1111811 44.5900184,23.1034365 C46.6693642,23.0846254 48.7491492,23.0887153 50.8282333,23.0552987 C51.4358308,23.0155942 52.0449337,22.9899164 52.6479183,22.9005633 C53.2183427,22.8358435 53.7899256,22.7574088 54.3431813,22.5998655 C54.6982607,22.4717563 55.0688919,22.3906621 55.4222825,22.2557846 C55.7700277,22.1056576 56.1680022,22.0495112 56.4810758,21.833633 C56.7758837,21.6325764 56.8547411,21.1759215 56.548815,20.9449541 C56.233981,20.6575336 55.7930075,20.6089299 55.4056038,20.4723052 C54.5280235,20.2028934 53.6393568,19.9693632 52.7728808,19.6643863 C52.4174697,19.5546686 52.0712466,19.4228894 51.7536752,19.226651 C51.352414,19.0091349 50.9626838,18.7713904 50.592846,18.5037373 C50.2083847,18.2536544 49.8318483,17.9876637 49.4917884,17.6791569 C49.1098668,17.323797 48.8078068,16.8930497 48.5177727,16.4623429 C48.3413252,16.1887974 48.1714763,15.8726652 48.202076,15.5374356 C48.2256626,15.2508963 48.3623677,14.9795838 48.5594368,14.7722258 C48.7667724,14.5340622 49.0820425,14.4002656 49.3970268,14.4158211 C49.7842059,14.4181532 50.1449283,14.5824035 50.5154066,14.6761244 C52.7067409,15.3182368 54.8788341,16.0253251 57.0771882,16.6433378 C57.9919873,16.9020428 58.9315617,17.0541955 59.8583164,17.2612989 C60.3353447,17.3751542 60.818645,17.5000207 61.237692,17.7650431 C61.9171323,18.1670735 62.564093,18.6223699 63.1980314,19.0920848 C64.260909,19.9023184 65.3390061,20.6928473 66.3776916,21.5343232 C66.8299903,21.899122 67.2890809,22.255307 67.7455436,22.614833 C62.7438153,9.3975468 49.969365,0 35,0 C15.6700338,0 0,15.6700338 0,35 C0,36.8546526 0.144255671,38.6756125 0.422158828,40.4522715 C0.644457161,40.0493165 0.867351511,39.6466912 1.08421239,39.2407565 C1.71151068,38.060376 2.39499171,36.9114917 3.05676482,35.7504165 C3.4567594,35.0703703 3.87437414,34.3985079 4.3426971,33.7629848 C4.62486765,33.3553125 5.0209423,33.0515444 5.41554604,32.7603623 C6.18767449,32.2076336 6.99307325,31.7004763 7.73403543,31.1049212 C9.51608054,29.6771313 11.2391501,28.1776107 13.0053176,26.7303804 C13.3097124,26.499362 13.5775704,26.2072355 13.9330447,26.0538122 C14.2168995,25.9164248 14.5593715,25.9163994 14.843271,26.0546119 C15.1056845,26.1684803 15.3375228,26.3648017 15.4711887,26.6193359 C15.6303339,26.9159479 15.5975113,27.2732995 15.5419755,27.5940298 C15.4432923,28.1038017 15.3335556,28.6183097 15.1208539,29.0946291 C14.9283782,29.5114659 14.6857155,29.9034198 14.4295428,30.2838276 C14.1936955,30.6746946 13.9278521,31.0458039 13.6434913,31.402799 C13.4278507,31.7075098 13.1606519,31.9640827 12.8763762,32.2039387 C12.1979729,32.8232049 11.4712284,33.3853771 10.7687082,33.9762454 C10.4654973,34.2533683 10.078586,34.4704014 9.90109122,34.8579728 C9.70973885,35.1901004 9.96074637,35.5796254 10.3106631,35.6495054 C10.6831838,35.7258916 11.0714433,35.6220779 11.450188,35.6243955 C11.828171,35.6104708 12.2010095,35.5403042 12.5779024,35.5194896 C13.1487104,35.4483377 13.7054791,35.2972083 14.2558228,35.1339073 C14.8457617,34.9805588 15.4164533,34.7662087 15.9912398,34.565358 C17.918024,33.7837876 19.8307989,32.9674198 21.7521174,32.1723033 C22.4338162,31.8913525 23.1224449,31.6272802 23.8262978,31.4068573 C25.35102,30.8921663 26.888674,30.4143396 28.4465847,30.0099147 C28.7469814,29.9638076 29.0536722,29.8678414 29.3577335,29.9396703 C29.6565787,29.9864918 29.9390852,30.1563218 30.1320236,30.388374 C30.3765071,30.6797531 30.4658354,31.0794883 30.4085121,31.4513384 C30.3394951,31.7614368 30.1322004,32.0210734 29.8966213,32.2242378 C29.4411189,32.5212593 28.986788,32.8208433 28.5112154,33.085263 C26.1460114,34.2098709 23.7810264,35.3349462 21.4230202,36.4745943 C20.7579306,36.8016439 20.07275,37.0958016 19.4462119,37.4943544 C19.1638871,37.6536669 18.9288215,37.932788 18.9127602,38.2679603 C18.87336,38.5356045 19.0625664,38.7877391 19.3108124,38.870956 C19.6367978,39.0228108 19.9733615,38.860534 20.287123,38.7601868 C20.9254848,38.5667586 21.5491245,38.3282606 22.1900893,38.1435636 C23.4463955,37.7936939 24.7097797,37.4689108 25.9721688,37.1414609 C27.5506764,36.7452945 29.1386083,36.3867352 30.7297499,36.0449317 C31.4424962,35.9058754 32.1452673,35.7109071 32.8680623,35.6283167 C33.3529951,35.5525839 33.8937388,35.6623271 34.2449433,36.0240331 L34.2449432,36.0240335 L34.2449022,36.0239418 C34.2855305,36.0738036 34.3261621,36.1236648 34.3667928,36.1735247 C34.5440443,36.4491801 34.7155048,36.7425714 34.7448752,37.0763127 C34.7654555,37.4203085 34.6430739,37.7744897 34.4439448,38.0532887 C34.2074105,38.372827 33.8101499,38.4894707 33.4622191,38.6432615 C31.3781442,39.2417589 29.2940309,39.840118 27.2090699,40.4355305 C25.440889,40.9483454 23.6672819,41.4419673 21.8922845,41.9306087 C21.4709122,42.0631961 21.0366253,42.1476709 20.6170227,42.2868973 C20.3037025,42.3340051 20.1088245,42.8749174 20.465667,43.0036519 C20.7540271,43.1211357 21.0592565,42.9775315 21.3326935,42.8821858 C21.9366148,42.709299 22.5463483,42.5553821 23.1524581,42.38962 C25.9858608,41.6913455 28.8133108,40.9679849 31.6574294,40.3140526 C31.9988871,40.2278439 32.3480512,40.1392204 32.7020882,40.2010158 C32.9988904,40.2666544 33.2540523,40.4594216 33.4179475,40.7128625 C33.5520317,40.935267 33.652098,41.1921532 33.6375795,41.456321 C33.6168588,41.7635417 33.4962894,42.0733639 33.2502538,42.2697734 C32.9455968,42.5658312 32.5179834,42.6594614 32.1361876,42.8156811 C31.1155769,43.1786724 30.0844515,43.5117264 29.0555233,43.8503384 C27.8079635,44.2513418 26.5652894,44.6681502 25.3116687,45.0499215 C24.4079346,45.3353758 23.4935568,45.5841793 22.5800255,45.8358772 C21.7730901,46.0347926 20.9693316,46.2477236 20.1757839,46.4951413 C19.7985158,46.621655 19.3452177,46.709526 19.1227173,47.0770033 C18.9358325,47.3127951 18.9123894,47.6791954 19.1380632,47.8993503 C19.3588921,48.1528772 19.7023136,48.2372868 20.0137129,48.3215637 C22.1275881,48.5451924 24.2403464,48.7796821 26.3549516,48.9962008 C26.9681453,49.068678 27.5882882,49.1030071 28.1904448,49.2474331 C28.548945,49.3294593 28.9895245,49.4007762 29.1720804,49.7644423 C29.440228,50.1637021 29.4218376,50.7014829 29.2029116,51.1179728 C28.8994079,51.4577802 28.4306051,51.5287454 28.0151826,51.6501554 C27.550588,51.6898887 27.087093,51.7562738 26.6199086,51.751004 C24.9766851,51.6532156 23.3331526,51.5611056 21.6890286,51.4797248 C20.6435996,51.416657 19.5961955,51.4174074 18.5493312,51.4229331 C17.0000639,51.6348984 15.4507994,51.8468577 13.9015311,52.0588218 C12.8795877,52.1879802 11.861183,52.3421303 10.8447845,52.5091474 C10.2023111,52.5726615 9.56562749,52.6998216 8.91949093,52.7212598 C7.75246186,52.7658194 6.58691941,52.663806 5.4265239,52.5504755 C5.17451282,52.5302314 4.92282031,52.5061059 4.67123855,52.4807311 Z" id="path-3"></path>
    </defs>
    <g id="Page-1" stroke="none" stroke-width="1" fill="none" fill-rule="evenodd" sketch:type="MSPage">
        <g id="logo-dark-full" sketch:type="MSLayerGroup" transform="translate(-10.000000, -10.000000)">
            <text id="Refugees-Welcome" sketch:type="MSTextLayer" font-family="Reklame Script DEMO" font-size="62" font-weight="normal" line-spacing="59" fill="#64A2C7">
                <tspan x="100" y="64">Refugees Welcome</tspan>
            </text>
            <g id="logo-dark" transform="translate(45.000000, 45.000000) rotate(19.000000) translate(-45.000000, -45.000000) translate(10.000000, 10.000000)">
                <mask id="mask-2" sketch:name="Mask" fill="white">
                    <use xlink:href="#path-1"></use>
                </mask>
                <use id="Mask" sketch:type="MSShapeGroup" xlink:href="#path-1"></use>
                <mask id="mask-4" sketch:name="Mask Copy" fill="white">
                    <use xlink:href="#path-3"></use>
                </mask>
                <use id="Mask-Copy" fill="#78ACD1" sketch:type="MSShapeGroup" xlink:href="#path-3"></use>
            </g>
        </g>
    </g>
</svg>