<?xml version="1.0" encoding="UTF-8" standalone="no"?>
<svg width="30px" height="40px" viewBox="0 0 30 40" version="1.1" xmlns="http://www.w3.org/2000/svg" xmlns:xlink="http://www.w3.org/1999/xlink" xmlns:sketch="http://www.bohemiancoding.com/sketch/ns">
    <!-- Generator: Sketch 3.3.2 (12043) - http://www.bohemiancoding.com/sketch -->
    <title>blue-cluster</title>
    <desc>Created with Sketch.</desc>
    <defs></defs>
    <g id="Page-1" stroke="none" stroke-width="1" fill="none" fill-rule="evenodd" sketch:type="MSPage">
        <g id="blue-cluster" sketch:type="MSLayerGroup">
            <g id="Group" sketch:type="MSShapeGroup">
                <path d="M14.7262423,0.0641478439 C6.62537988,0.0641478439 0.0580698152,6.63129363 0.0580698152,14.7323203 C0.0580698152,18.203039 1.18529774,21.0804928 2.87268994,24.066037 C6.82053388,31.0510062 14.7439836,39.9768378 14.7439836,39.9768378 C20.0349076,34.2773717 26.8195483,23.0316222 26.8195483,23.0316222 C26.8195483,23.0316222 29.3945791,17.8134702 29.3945791,14.7323203 C29.3944148,6.63129363 22.8271869,0.0641478439 14.7262423,0.0641478439 L14.7262423,0.0641478439 Z" id="Shape" fill="#44A3D3"></path>
                <path d="M14.7263244,25.9368378 C8.35965713,25.9368378 3.19802875,20.7754023 3.19802875,14.4085421 C3.19802875,8.04168192 8.35965713,2.88024641 14.7263244,2.88024641 C21.0929917,2.88024641 26.2546201,8.04158549 26.2546201,14.4085421 C26.2546201,20.7754987 21.0929917,25.9368378 14.7263244,25.9368378 L14.7263244,25.9368378 Z" id="Path" fill="#FFFFFF"></path>
            </g>
        </g>
    </g>
</svg>